<svg width="30" height="28" viewBox="0 0 30 28" fill="none" xmlns="http://www.w3.org/2000/svg">
<path d="M23.4953 5.50447C23.3857 5.61342 23.3236 5.76461 23.3236 5.91874C23.3236 6.07293 23.3857 6.22407 23.4953 6.33307C23.6043 6.44208 23.7555 6.50478 23.9097 6.50478C24.0638 6.50478 24.2143 6.44214 24.3239 6.33307C24.4329 6.22407 24.4957 6.07293 24.4957 5.91874C24.4957 5.76461 24.433 5.61342 24.3239 5.50447C24.215 5.39547 24.0638 5.3327 23.9097 5.3327C23.7555 5.3327 23.6043 5.39547 23.4953 5.50447Z" fill="white"/>
<path d="M29.414 20.4802H21.4777C22.4961 19.985 23.4459 19.3399 24.2951 18.5558C24.5329 18.3362 24.5476 17.9655 24.328 17.7277C24.1085 17.4898 23.7376 17.4751 23.4999 17.6947C21.5546 19.491 19.024 20.4802 16.3743 20.4802H15.0944C15.4622 20.1876 15.8169 19.8729 16.1551 19.5347C17.9266 17.7632 18.9042 15.4066 18.9078 12.899C18.9111 10.5861 18.0845 8.40338 16.5694 6.6895L20.4766 2.78178C21.1851 2.07319 22.1272 1.68301 23.1292 1.68301C25.1977 1.68301 26.8805 3.36582 26.8805 5.43426V9.97415C26.8805 11.2087 26.6685 12.4173 26.2505 13.5663C26.1399 13.8704 26.2967 14.2067 26.6008 14.3174C26.667 14.3414 26.7346 14.3528 26.8012 14.3528C27.0406 14.3528 27.2654 14.205 27.3519 13.967C27.8168 12.6891 28.0525 11.3458 28.0525 9.97409V7.4932H29.4138C29.6509 7.4932 29.8646 7.35038 29.9553 7.13143C30.0459 6.91243 29.9958 6.66037 29.8282 6.49277L27.9901 4.65465C27.6153 2.30913 25.5785 0.510864 23.1291 0.510864C21.814 0.510864 20.5776 1.02301 19.6477 1.95294L0.953376 20.6477C0.824154 20.7769 0.762619 20.959 0.78694 21.1401C0.811261 21.3212 0.918682 21.4806 1.07744 21.5711C1.73099 21.9439 2.40834 22.2503 3.10028 22.4946L0.171655 25.4232C0.0613033 25.5336 -0.00052409 25.6834 3.3471e-06 25.8394C0.00047218 25.9955 0.0631787 26.1449 0.174234 26.2546C1.00764 27.0778 2.0992 27.489 3.19059 27.489C4.29082 27.489 5.39088 27.071 6.22588 26.236L9.44418 23.0177C10.7968 22.7806 12.1127 22.3227 13.3332 21.6523H19.6824L21.8192 23.789V24.4838C21.8192 26.1318 23.16 27.4726 24.808 27.4726H25.7456C26.0692 27.4726 26.3317 27.2102 26.3317 26.8866V25.9489C26.3317 24.3009 24.9909 22.9601 23.3429 22.9601H22.6479L21.3401 21.6523H29.414C29.7376 21.6523 30 21.3899 30 21.0662C30 20.7426 29.7376 20.4802 29.414 20.4802ZM11.7652 15.4845C9.80044 17.4493 7.19607 18.6181 4.46037 18.7982L14.1609 9.09778C14.3264 11.4552 13.4702 13.7795 11.7652 15.4845ZM3.27182 19.9868C3.42003 19.9921 3.56806 19.9956 3.71592 19.9956C7.02987 19.9956 10.2315 18.6758 12.594 16.3134C14.7752 14.1322 15.7411 11.063 15.212 8.04666L15.7391 7.51951C17.0337 9.01017 17.7387 10.8983 17.7358 12.8974C17.7326 15.0925 16.8769 17.1553 15.3263 18.7059C11.895 22.1372 6.65791 22.996 2.34464 20.914L3.27182 19.9868ZM5.3971 25.4071C4.3305 26.4739 2.66913 26.6044 1.45714 25.7953L4.38119 22.8712C5.33117 23.0957 6.29878 23.2079 7.26411 23.2079C7.37657 23.2079 7.48891 23.206 7.60126 23.203L5.3971 25.4071ZM25.1597 25.949V26.3006H24.808C23.8062 26.3006 22.9913 25.4857 22.9913 24.4839V24.1323H23.3429C24.3447 24.1323 25.1597 24.9472 25.1597 25.949Z" fill="white"/>
<path d="M25.1954 15.7051C25.0864 15.8141 25.0237 15.9653 25.0237 16.1194C25.0237 16.2736 25.0863 16.4248 25.1954 16.5338C25.3044 16.6427 25.4556 16.7055 25.6097 16.7055C25.7639 16.7055 25.915 16.6428 26.024 16.5338C26.133 16.4248 26.1958 16.2736 26.1958 16.1194C26.1958 15.9653 26.1331 15.8141 26.024 15.7051C25.915 15.5962 25.7644 15.5334 25.6097 15.5334C25.4557 15.5334 25.3045 15.5961 25.1954 15.7051Z" fill="white"/>
</svg>
