<svg width="25" height="20" viewBox="0 0 25 20" fill="none" xmlns="http://www.w3.org/2000/svg">
<path d="M0 12.2222V14.4444C3.06667 14.4444 5.55557 16.9333 5.55557 20H7.77781C7.77776 15.7055 4.29443 12.2222 0 12.2222Z" fill="white"/>
<path d="M0 16.6665V19.9998H3.33333C3.33333 18.1609 1.83891 16.6665 0 16.6665Z" fill="white"/>
<path d="M22.2222 0H2.22224C0.994427 0 0 0.994427 0 2.22219V5.55552H2.22224V2.22219H22.2222V17.7778H14.4444V20H22.2222C23.4499 20 24.4444 19.0056 24.4444 17.7778V2.22219C24.4444 0.994427 23.45 0 22.2222 0Z" fill="white"/>
<path d="M0 7.77783V10.0001C5.52224 10.0001 10 14.4778 10 20.0001H12.2222C12.2222 13.2501 6.75 7.77783 0 7.77783Z" fill="white"/>
</svg>
