<svg width="19" height="26" viewBox="0 0 19 26" fill="none" xmlns="http://www.w3.org/2000/svg">
<path d="M0.785632 22.3905C0.351718 22.3905 0 22.0388 0 21.6049V3.24073C0 1.45376 1.45376 0 3.24073 0H17.2839C17.7178 0 18.0695 0.351767 18.0695 0.785632V18.8552C18.0695 19.289 17.7178 19.6408 17.2839 19.6408C16.85 19.6408 16.4983 19.289 16.4983 18.8552V1.57126H3.24073C2.32017 1.57126 1.57126 2.32017 1.57126 3.24073V21.6049C1.57126 22.0388 1.21955 22.3905 0.785632 22.3905Z" fill="white"/>
<path d="M17.2839 25.1403H3.53535C1.58595 25.1403 0 23.5543 0 21.6049C0 19.6555 1.58595 18.0696 3.53535 18.0696H17.2839C17.7178 18.0696 18.0695 18.4213 18.0695 18.8552C18.0695 19.2891 17.7178 19.6408 17.2839 19.6408H3.53535C2.45235 19.6408 1.57126 20.5219 1.57126 21.6049C1.57126 22.6879 2.45235 23.569 3.53535 23.569H17.2839C17.7178 23.569 18.0695 23.9208 18.0695 24.3546C18.0695 24.7885 17.7178 25.1403 17.2839 25.1403Z" fill="white"/>
<path d="M17.284 22.3905H3.53539C3.10147 22.3905 2.74976 22.0387 2.74976 21.6048C2.74976 21.171 3.10147 20.8192 3.53539 20.8192H17.284C17.7179 20.8192 18.0696 21.171 18.0696 21.6048C18.0696 22.0387 17.7179 22.3905 17.284 22.3905Z" fill="white"/>
<path d="M4.32103 19.6408C3.88712 19.6408 3.5354 19.289 3.5354 18.8552V0.785632C3.5354 0.351767 3.88712 0 4.32103 0C4.75495 0 5.10667 0.351767 5.10667 0.785632V18.8552C5.10667 19.289 4.75495 19.6408 4.32103 19.6408Z" fill="white"/>
</svg>
