<svg xmlns="http://www.w3.org/2000/svg" viewBox="0 0 148.99 148.99"><defs><style>.cls-1{fill:#79a5cf;}.cls-2{fill:#fff;}</style></defs><title>Asset 1</title><g id="Layer_2" data-name="Layer 2"><g id="Object"><circle class="cls-1" cx="74.49" cy="74.49" r="74.49"/><path class="cls-2" d="M100.56,93.57a12,12,0,0,0-10,5.46L47.89,77.74a12.74,12.74,0,0,0,.6-3.83,12.3,12.3,0,0,0-.65-4l42.78-21.9a12,12,0,0,0,9.94,5.36A12.34,12.34,0,1,0,88.5,41.09,12.62,12.62,0,0,0,89.14,45L46.36,66.93a12,12,0,0,0-9.93-5.35,12.33,12.33,0,0,0,0,24.66,12,12,0,0,0,10-5.46L89.1,102.07a12.43,12.43,0,0,0-.6,3.83,12.06,12.06,0,1,0,12.06-12.33ZM91.81,41.09A8.75,8.75,0,1,1,100.56,50,8.86,8.86,0,0,1,91.81,41.09ZM45.18,73.91a8.75,8.75,0,1,1-8.75-9A8.87,8.87,0,0,1,45.18,73.91ZM92.69,102s0,0,0,0v0a8.75,8.75,0,0,1,7.85-5,9,9,0,1,1-8.75,9A9.06,9.06,0,0,1,92.69,102Z"/></g></g></svg>