<svg xmlns="http://www.w3.org/2000/svg" viewBox="0 0 148.99 148.99"><defs><style>.cls-1{fill:#79a5cf;}.cls-2{fill:#fff;}</style></defs><title>Asset 2</title><g id="Layer_2" data-name="Layer 2"><g id="Object"><circle class="cls-1" cx="74.49" cy="74.49" r="74.49"/><path class="cls-2" d="M27.35,76.18a1.91,1.91,0,0,1-.18-.66,1.78,1.78,0,0,1,1-1.73l79.07-39.42a1.8,1.8,0,0,1,2.49,2.21l-29.58,83a1.82,1.82,0,0,1-1.6,1.19,1.79,1.79,0,0,1-1.7-1h0l-15-31.56L28.39,77.09A1.83,1.83,0,0,1,27.35,76.18Zm77.5-36.61L33.64,75.06l30,10a2.11,2.11,0,0,1,1.06.93l13.47,28.34Z"/></g></g></svg>