<svg width="18" height="16" viewBox="0 0 18 16" fill="none" xmlns="http://www.w3.org/2000/svg">
<path d="M17.7794 7.94846L9.44976 0.155062C9.2305 -0.0504051 8.88966 -0.0517382 8.66851 0.151413L0.185749 7.94484C-0.047853 8.1595 -0.0631832 8.52276 0.151475 8.75636C0.264645 8.87988 0.41935 8.94229 0.574652 8.94229C0.713466 8.94229 0.852876 8.89212 0.963169 8.79081L9.05377 1.35776L16.9944 8.78737C17.2265 9.00431 17.5896 8.99189 17.8063 8.76036C18.0229 8.52866 18.011 8.16522 17.7794 7.94846Z" fill="white"/>
<path d="M14.8018 6.41467V14.7825H11.6423V11.1635C11.6423 10.8462 11.3851 10.5891 11.0678 10.5891H7.02749C6.71019 10.5891 6.45305 10.8462 6.45305 11.1635V14.7825H3.31271V6.41467H2.16382V15.357C2.16382 15.6743 2.42099 15.9314 2.73826 15.9314H7.02753C7.34483 15.9314 7.60197 15.6743 7.60197 15.357V11.738H10.4934V15.357C10.4934 15.6743 10.7506 15.9315 11.0678 15.9315H15.3763C15.6936 15.9315 15.9507 15.6743 15.9507 15.357V6.41467H14.8018Z" fill="white"/>
</svg>
