<svg width="25" height="33" viewBox="0 0 25 33" fill="none" xmlns="http://www.w3.org/2000/svg">
<path d="M19.8048 25.33C19.5215 25.2396 19.218 25.3959 19.1275 25.6806C17.9393 29.4111 14.5178 31.9178 10.6132 31.9178C5.68508 31.9178 1.67619 27.8926 1.67619 22.9448C1.67619 18.5583 8.77043 8.36314 10.6135 5.7886C11.2328 6.65254 12.4436 8.37455 13.7718 10.4378C13.933 10.6888 14.2664 10.7608 14.5167 10.5988C14.7666 10.4365 14.8383 10.1019 14.6768 9.8509C12.7503 6.85731 11.0625 4.56932 11.0457 4.5465C10.8425 4.2712 10.3836 4.2712 10.1804 4.5465C9.7889 5.07586 0.59845 17.5739 0.59845 22.9452C0.59845 28.4895 5.09105 33.0002 10.6132 33.0002C14.9882 33.0002 18.8224 30.1911 20.1541 26.0104C20.2446 25.7254 20.0883 25.4211 19.8048 25.33Z" fill="white"/>
<path d="M17.4336 5.97356C17.2304 5.69826 16.7715 5.69826 16.5683 5.97356C16.2838 6.35854 9.60034 15.4472 9.60034 19.3856C9.60034 23.4828 12.9204 26.816 17.001 26.816C21.0815 26.816 24.4016 23.4824 24.4014 19.3856C24.4016 15.4472 17.7183 6.35854 17.4336 5.97356ZM17.001 25.7341C13.5143 25.7341 10.6779 22.886 10.6779 19.3858C10.6779 17.9313 11.8354 15.2751 14.025 11.7043C15.2002 9.78782 16.387 8.08055 17.0025 7.21598C19.1043 10.1514 23.3243 16.6187 23.324 19.3858C23.324 22.8864 20.4876 25.7341 17.001 25.7341Z" fill="white"/>
<path d="M15.0443 0.218877C14.9427 0.0811477 14.7823 0 14.6116 0C14.4409 0 14.2802 0.0811477 14.1788 0.218877C13.8639 0.644427 12.2945 2.824 12.2945 3.93265C12.2945 5.21532 13.3337 6.25867 14.6113 6.25867C15.8889 6.25867 16.9282 5.21516 16.9283 3.93265C16.9283 2.82416 15.3589 0.644268 15.0443 0.218877ZM14.6113 5.17665C13.9281 5.17665 13.3722 4.6186 13.3722 3.93265C13.3722 3.52422 13.9568 2.45218 14.6108 1.47904C15.2117 2.37484 15.8506 3.49204 15.8506 3.93265C15.8504 4.61892 15.2946 5.17665 14.6113 5.17665Z" fill="white"/>
<path d="M10.2972 29.7541C6.73206 29.7541 3.83134 26.8417 3.83134 23.2623C3.83134 22.9637 3.59012 22.7214 3.29247 22.7214C2.99498 22.7214 2.7536 22.9637 2.7536 23.2623C2.7536 27.4384 6.1374 30.8361 10.2972 30.8361C10.5947 30.8361 10.836 30.5938 10.836 30.2952C10.836 29.9965 10.5948 29.7541 10.2972 29.7541Z" fill="white"/>
<path d="M17.0325 23.2623C14.8041 23.2623 12.9913 21.4422 12.9913 19.2049C12.9913 18.9063 12.75 18.664 12.4524 18.664C12.1547 18.664 11.9135 18.9063 11.9135 19.2049C11.9135 22.0389 14.2097 24.3443 17.0323 24.3443C17.3298 24.3443 17.5712 24.102 17.5712 23.8034C17.5712 23.5048 17.3301 23.2623 17.0325 23.2623Z" fill="white"/>
</svg>
