<svg width="31" height="31" viewBox="0 0 31 31" fill="none" xmlns="http://www.w3.org/2000/svg">
<path d="M23.0254 2.58791C21.0972 1.88982 19.3157 1.99494 18.1861 2.83464C17.5114 1.86771 15.8451 0.03125 12.9219 0.03125C9.83792 0.03125 8.46481 1.75995 7.99804 2.55085C7.32568 2.45723 6.64216 2.48122 5.97802 2.62175C4.77758 2.88839 3.22168 3.70733 2.62478 6.09371C2.02788 8.48009 3.01595 9.93512 3.94961 10.7352C4.57602 11.262 5.30668 11.6505 6.09371 11.8752C6.17324 11.8951 6.25637 11.8957 6.33619 11.8771C6.41602 11.8584 6.49024 11.821 6.55271 11.7679C6.61518 11.7148 6.66408 11.6476 6.69537 11.5718C6.72667 11.496 6.73944 11.4139 6.73264 11.3322C6.61295 9.89664 6.96937 8.74409 7.79179 7.90639C9.66512 5.99858 13.3666 6.21533 13.4032 6.21772C13.4067 6.21772 13.4103 6.21817 13.4138 6.2183C13.698 6.23119 13.9817 6.25497 14.2608 6.28855C14.7339 7.62273 15.2849 9.51579 15.5341 11.6253C14.7455 11.5398 13.9497 11.6995 13.255 12.0826C12.8902 12.2829 12.5557 12.534 12.2615 12.8284C11.4995 12.5584 9.66203 12.0529 8.15222 12.7892C7.19128 13.258 6.54591 14.1279 6.23415 15.375C5.90493 16.6918 6.06703 17.7809 6.71575 18.6118C7.89589 20.1232 10.2444 20.1406 10.3438 20.1406C10.4178 20.1404 10.4909 20.1243 10.5581 20.0934C10.6254 20.0625 10.6852 20.0175 10.7336 19.9614C10.7819 19.9054 10.8177 19.8396 10.8384 19.7686C10.8592 19.6975 10.8644 19.6228 10.8538 19.5496C10.8054 19.0861 10.854 18.6176 10.9965 18.1738C11.293 17.287 11.9746 16.7309 13.023 16.5213C13.7642 16.373 14.5855 16.6324 15.32 17.0675C14.7464 19.5649 13.4615 21.6222 11.4956 23.1861C8.96349 25.2002 5.26484 26.4312 0.502209 26.8457C0.373673 26.8569 0.253998 26.9158 0.166808 27.0109C0.0796175 27.106 0.0312488 27.2304 0.03125 27.3594V30.4531C0.03125 30.5899 0.0855746 30.721 0.182273 30.8177C0.278972 30.9144 0.410123 30.9688 0.546875 30.9688H26.8438C26.9172 30.9687 26.9899 30.953 27.0568 30.9227C27.1237 30.8923 27.1834 30.848 27.2318 30.7927C27.2584 30.7622 27.8921 30.0293 28.6276 28.4267C29.8328 25.8003 30.3909 22.856 30.6469 20.8484C30.8665 19.0741 30.974 17.2878 30.9688 15.5C30.9688 12.242 30.085 9.25804 28.4131 6.87056C27.0024 4.85589 25.089 3.33505 23.0254 2.58791ZM13.3978 15.4559C13.2041 15.455 13.0109 15.4731 12.8207 15.51C11.008 15.8725 10.2886 17.0045 10.0041 17.8902C9.88462 18.2705 9.81816 18.6655 9.80666 19.064C9.1651 18.9765 8.10697 18.7209 7.52625 17.9742C7.08487 17.4067 6.98671 16.6163 7.23453 15.625C7.47191 14.6755 7.91896 14.0515 8.60094 13.7176C10.0821 12.9923 12.1763 13.8997 12.1966 13.9087C12.303 13.9555 12.422 13.9651 12.5345 13.9361C12.647 13.9071 12.7465 13.8411 12.817 13.7488C12.8714 13.6779 14.1734 12.0188 16.3395 12.8851C18.4752 13.7395 18.1042 15.8285 18.0879 15.9144C18.0694 16.0066 18.0765 16.1021 18.1083 16.1905C18.1402 16.2789 18.1956 16.357 18.2686 16.4162C18.3416 16.4754 18.4294 16.5135 18.5225 16.5265C18.6156 16.5394 18.7105 16.5266 18.7968 16.4895C18.8055 16.4856 19.6916 16.1286 20.4343 16.6185C21.2541 17.159 21.6875 18.5551 21.6875 20.6562C21.6875 23.0726 20.6176 25.372 18.5067 27.4905C18.087 27.9107 17.6439 28.307 17.1797 28.6775C18.2534 26.7048 18.8902 24.8586 19.0772 23.1677C19.2881 21.2645 18.9154 19.5353 17.9992 18.1673C16.8012 16.3783 14.8528 15.4559 13.3978 15.4559ZM1.0625 27.8292C5.80567 27.3572 9.52977 26.0675 12.1376 23.9931C14.1796 22.3689 15.5506 20.2619 16.2213 17.7218C16.5708 18.0208 16.8804 18.3634 17.1425 18.7413C17.9327 19.9213 18.2388 21.3723 18.0524 23.0542C17.8262 25.0945 16.8743 27.4093 15.2224 29.9378H1.0625V27.8292ZM26.5908 29.9375H17.2333C17.936 29.4223 18.5989 28.8547 19.2162 28.2396C21.5075 25.9482 22.7188 23.3259 22.7188 20.6562C22.7188 18.1568 22.1411 16.5086 21.002 15.7574C20.4529 15.4045 19.7953 15.2607 19.149 15.3525C19.1408 15.0557 19.1008 14.7608 19.0295 14.4726C18.8239 13.6503 18.2568 12.5412 16.7227 11.9275C16.6812 11.9109 16.64 11.8953 16.599 11.8801C16.3898 9.79699 15.8877 7.89904 15.4146 6.47386C23.013 7.92863 26.6176 13.2823 29.6067 20.8488C28.8691 26.4635 27.0945 29.2442 26.5908 29.9375ZM29.8252 18.6762C28.2124 14.9457 26.5706 12.3031 24.615 10.26C21.9988 7.52663 18.7606 5.90718 14.7155 5.30925H14.715C14.301 5.24801 13.8841 5.2077 13.4661 5.18847C13.227 5.17332 9.24669 4.95644 7.05896 7.18104C6.17731 8.07738 5.71524 9.23309 5.68044 10.6243C5.28839 10.4447 4.92333 10.2112 4.59582 9.93073C3.57849 9.04379 3.25197 7.83697 3.62522 6.34379C3.99847 4.8506 4.8546 3.93969 6.16957 3.63566C6.82388 3.49426 7.50046 3.49071 8.15621 3.62522C8.27717 3.65546 8.40499 3.64084 8.516 3.58408C8.62702 3.52732 8.7137 3.43226 8.76001 3.31649C8.76897 3.29393 9.69922 1.0625 12.9219 1.0625C16.1556 1.0625 17.5594 3.75774 17.617 3.87124C17.6553 3.94783 17.7121 4.01368 17.7822 4.06282C17.8523 4.11197 17.9336 4.14288 18.0187 4.15274C18.1038 4.16261 18.19 4.15114 18.2695 4.11935C18.349 4.08757 18.4194 4.03648 18.4742 3.97069C19.2378 3.05442 20.8471 2.89606 22.6743 3.55754C24.5401 4.23308 26.2782 5.62005 27.5683 7.46212C29.1183 9.67531 29.9375 12.4548 29.9375 15.5C29.9375 16.5886 29.8993 17.6502 29.8252 18.6762Z" fill="white"/>
</svg>
