<svg width="21" height="24" viewBox="0 0 21 24" fill="none" xmlns="http://www.w3.org/2000/svg">
<path d="M10.1087 11.3483L10.5 10.8266L10.8912 11.3483C11.289 11.8788 11.8684 12.2311 12.5226 12.3401L14.5849 12.6838C14.6238 12.6903 14.6626 12.6934 14.7008 12.6934C15.0368 12.6934 15.3334 12.4508 15.3904 12.1084C15.454 11.7271 15.1964 11.3664 14.815 11.3028L12.7528 10.9591C12.4554 10.9095 12.1921 10.7494 12.0113 10.5083L11.06 9.23996C10.9277 9.0637 10.7203 8.95996 10.5 8.95996C10.2796 8.95996 10.0722 9.0637 9.93996 9.23996L8.98871 10.5083C8.80787 10.7494 8.54449 10.9095 8.24718 10.9591L6.18489 11.3028C5.80353 11.3664 5.54593 11.727 5.60949 12.1084C5.673 12.4897 6.03355 12.7474 6.41505 12.6838L8.47734 12.3401C9.13146 12.231 9.71083 11.8788 10.1087 11.3483Z" fill="white"/>
<path d="M19.8205 18.1783C19.0709 17.5637 18.0957 17.3202 17.1453 17.5104L15.7556 17.7884L14.9333 16.4607V15.4933H15.6333C17.0486 15.4933 18.2 14.3419 18.2 12.9266C18.2 9.96284 16.1427 7.47099 13.3812 6.80296C14.0812 6.08023 14.5133 5.09655 14.5133 4.01332C14.5133 1.8004 12.713 0 10.5 0C8.2871 0 6.4867 1.8004 6.4867 4.01332C6.4867 5.09655 6.91883 6.08023 7.61883 6.80296C4.85739 7.47099 2.80004 9.96284 2.80004 12.9266C2.80004 14.3419 3.95145 15.4933 5.3667 15.4933H6.0667V16.4607L5.24448 17.7883L3.8548 17.5104C2.91433 17.3222 1.94661 17.5596 1.19999 18.1616C0.453183 18.7638 0.0159639 19.6588 0.000423901 20.6171C-0.0134827 21.4754 0.31519 22.2899 0.925868 22.9105C1.54042 23.5351 2.39288 23.8933 3.26466 23.8933H17.7773C19.5543 23.8933 21 22.4475 21 20.6705C21 19.7012 20.5701 18.7928 19.8205 18.1783ZM10.5 1.4C11.941 1.4 13.1134 2.57235 13.1134 4.01332C13.1134 5.45429 11.941 6.62665 10.5 6.62665C9.05905 6.62665 7.8867 5.45429 7.8867 4.01332C7.8867 2.57235 9.05901 1.4 10.5 1.4ZM4.20004 12.9266C4.20004 10.2248 6.39817 8.02665 9.10003 8.02665H11.9C14.6019 8.02665 16.8 10.2248 16.8 12.9266C16.8 13.5699 16.2766 14.0933 15.6333 14.0933H13.5826C12.6205 14.0933 11.6889 13.8112 10.8883 13.2775C10.7707 13.1992 10.6354 13.16 10.5 13.16C10.3647 13.16 10.2293 13.1992 10.1118 13.2775C9.31119 13.8112 8.37954 14.0933 7.41742 14.0933H5.3667C4.72341 14.0933 4.20004 13.5699 4.20004 12.9266ZM7.36179 17.0285C7.43035 16.9178 7.4667 16.7902 7.4667 16.66V15.4925C8.53616 15.4842 9.57519 15.2058 10.5 14.6815C11.4249 15.2058 12.4639 15.4842 13.5334 15.4925V16.66C13.5334 16.7902 13.5697 16.9178 13.6383 17.0285L14.2903 18.0814L10.5002 18.8394L6.70981 18.0814L7.36179 17.0285ZM1.92388 21.9287C1.5785 21.5776 1.39253 21.1199 1.40033 20.6397C1.4091 20.0981 1.65639 19.5921 2.07886 19.2515C2.50105 18.9111 3.04826 18.7768 3.58031 18.8832L7.02033 19.5712C6.17828 19.9028 5.60004 20.7251 5.60004 21.6546C5.60004 21.9511 5.65851 22.234 5.76365 22.4933H3.2647C2.76565 22.4933 2.27691 22.2875 1.92388 21.9287ZM17.7773 22.4933H7.83868C7.37626 22.4933 7.00003 22.1171 7.00003 21.6546C7.00003 21.2562 7.28353 20.9104 7.67418 20.8323L17.4198 18.8832C17.5396 18.8592 17.66 18.8474 17.7796 18.8474C18.1968 18.8474 18.6033 18.9908 18.9328 19.2609C19.3568 19.6084 19.6 20.1222 19.6 20.6705C19.6 21.6756 18.7823 22.4933 17.7773 22.4933Z" fill="white"/>
</svg>
