<svg width="23" height="33" viewBox="0 0 23 33" fill="none" xmlns="http://www.w3.org/2000/svg">
<path d="M20.5911 20.5708C21.5964 18.8887 22.2632 16.7611 22.3926 14.656C22.4748 13.3048 22.1737 11.8865 21.5217 10.5527C20.499 8.45752 18.7422 7.28053 17.0452 6.14336C15.7786 5.29483 14.5817 4.49358 13.7357 3.34894L13.5839 3.1449C13.0837 2.47304 12.5189 1.71161 12.4293 1.07211C12.3397 0.425135 11.7525 -0.035209 11.1105 0.00211624C10.4585 0.0469065 9.95339 0.586878 9.95339 1.24131V23.4125C8.91077 22.7804 7.62678 22.3923 6.22087 22.3923C2.79193 22.3923 0 24.6243 0 27.369C0 30.1136 2.79193 32.3456 6.22087 32.3456C9.64981 32.3456 12.4417 30.1136 12.4417 27.369V12.8669C14.3105 13.581 17.3687 15.4 18.2097 19.6476C18.053 19.879 17.9037 20.1279 17.7295 20.3269C17.2741 20.842 17.3239 21.6283 17.8414 22.0812C18.354 22.5391 19.1404 22.4843 19.5957 21.9692C19.9292 21.591 20.2253 21.1481 20.509 20.6853C20.5388 20.6504 20.5663 20.6131 20.5911 20.5708Z" fill="white"/>
</svg>
