<svg width="24" height="21" viewBox="0 0 24 21" fill="none" xmlns="http://www.w3.org/2000/svg">
<path d="M23.9946 5.72091C23.9946 5.71831 23.9949 5.71571 23.9949 5.71311C23.9949 2.55781 21.4371 0 18.2818 0C15.1265 0 12.5687 2.55776 12.5687 5.71311C12.5687 8.86846 15.1268 11.4262 18.2818 11.4262C18.9303 11.4262 19.551 11.3132 20.1318 11.114C18.8465 18.4877 13.0964 23.243 18.4267 19.3293C24.3372 14.9894 24.0012 5.88743 23.9946 5.72091Z" fill="white"/>
<path d="M5.71311 11.4262C6.36157 11.4262 6.98231 11.3131 7.56341 11.114C6.27772 18.4877 0.527623 23.2429 5.85795 19.3292C11.7685 14.9894 11.4326 5.88743 11.4259 5.72091C11.4259 5.71831 11.4262 5.71571 11.4262 5.71311C11.4262 2.55781 8.86841 0 5.71311 0C2.55776 0 0 2.55776 0 5.71311C0 8.86846 2.55805 11.4262 5.71311 11.4262Z" fill="white"/>
</svg>
