<svg width="34" height="30" viewBox="0 0 34 30" fill="none" xmlns="http://www.w3.org/2000/svg">
<path d="M27.3478 2.43475C23.6795 2.43475 20.6957 5.41936 20.6957 9.08693C20.6957 9.49493 21.026 9.82606 21.4348 9.82606C21.8435 9.82606 22.1739 9.49493 22.1739 9.08693C22.1739 6.23388 24.4955 3.91301 27.3478 3.91301C30.2001 3.91301 32.5217 6.23388 32.5217 9.08693C32.5217 11.94 30.2001 14.2608 27.3478 14.2608H0.73913C0.33113 14.2608 0 14.592 0 15C0 15.408 0.33113 15.7391 0.73913 15.7391H27.3478C31.0161 15.7391 34 12.7545 34 9.08693C34 5.41936 31.0161 2.43475 27.3478 2.43475Z" fill="white"/>
<path d="M13.3043 0.956543C10.4513 0.956543 8.13043 3.27741 8.13043 6.13046C8.13043 6.53846 8.46157 6.86959 8.86956 6.86959C9.27756 6.86959 9.6087 6.53846 9.6087 6.13046C9.6087 4.09267 11.2666 2.4348 13.3043 2.4348C15.3421 2.4348 17 4.09267 17 6.13046C17 8.16824 15.3421 9.82611 13.3043 9.82611H0.73913C0.33113 9.82611 0 10.1572 0 10.5652C0 10.9732 0.33113 11.3044 0.73913 11.3044H13.3043C16.1574 11.3044 18.4783 8.9835 18.4783 6.13046C18.4783 3.27741 16.1574 0.956543 13.3043 0.956543Z" fill="white"/>
<path d="M25.8696 18.6956H0.73913C0.33113 18.6956 0 19.0267 0 19.4347C0 19.8427 0.33113 20.1739 0.73913 20.1739H25.8696C27.9074 20.1739 29.5652 21.8317 29.5652 23.8695C29.5652 25.9073 27.9074 27.5652 25.8696 27.5652C23.8318 27.5652 22.1739 25.9073 22.1739 23.8695C22.1739 23.4615 21.8435 23.1304 21.4348 23.1304C21.026 23.1304 20.6957 23.4615 20.6957 23.8695C20.6957 26.7226 23.0173 29.0434 25.8696 29.0434C28.7219 29.0434 31.0435 26.7226 31.0435 23.8695C31.0435 21.0165 28.7219 18.6956 25.8696 18.6956Z" fill="white"/>
</svg>
